<?xml version="1.0" standalone="no"?>
<!DOCTYPE svg PUBLIC "-//W3C//DTD SVG 20010904//EN"
 "http://www.w3.org/TR/2001/REC-SVG-20010904/DTD/svg10.dtd">
<svg version="1.0" xmlns="http://www.w3.org/2000/svg"
 width="700.000000pt" height="700.000000pt" viewBox="0 0 700.000000 700.000000"
 preserveAspectRatio="xMidYMid meet">
<metadata>
Created by potrace 1.14, written by Peter Selinger 2001-2017
</metadata>
<g transform="translate(0.000000,700.000000) scale(0.100000,-0.100000)"
fill="#000000" stroke="none">
<path d="M2185 6125 l-1310 -584 -3 -803 c-3 -823 6 -1203 33 -1408 75 -560
287 -1120 607 -1598 463 -691 1132 -1195 1869 -1407 l119 -35 119 35 c316 91
586 217 876 410 823 546 1411 1465 1579 2467 48 286 51 350 51 1377 l0 963
-1314 584 c-722 321 -1314 584 -1315 583 0 -1 -590 -264 -1311 -584z m1540
-1412 c120 -285 221 -521 224 -525 3 -3 258 -28 566 -54 308 -26 564 -50 568
-54 5 -4 -185 -175 -422 -379 -237 -205 -431 -374 -431 -375 0 -2 58 -254 130
-561 71 -307 129 -560 127 -561 -1 -1 -222 130 -491 292 -269 162 -492 294
-496 294 -3 0 -227 -133 -495 -295 -269 -162 -490 -293 -492 -291 -1 1 56 253
127 560 72 307 130 559 130 560 0 2 -195 171 -434 377 -239 206 -433 375 -431
377 1 1 258 25 570 52 312 27 571 52 575 57 4 4 106 241 226 526 120 284 221
517 224 517 4 0 105 -233 225 -517z"/>
</g>
</svg>
